<svg version="1.1" id="Layer_1" xmlns="http://www.w3.org/2000/svg" xmlns:xlink="http://www.w3.org/1999/xlink" x="0px" y="0px"
	 width="100%" viewBox="0 0 1018 1048" enable-background="new 0 0 1018 1048" xml:space="preserve">
<path fill="#163A58" opacity="1.000000" stroke="none" 
	d="
M508.822021,1.345531 
	C677.482056,1.000000 845.964111,1.013302 1014.446106,0.911832 
	C1018.098145,0.909632 1019.102844,1.570110 1019.101624,5.445262 
	C1018.991882,351.741699 1018.989624,698.038147 1019.121155,1044.334595 
	C1019.122742,1048.567993 1018.044800,1049.099854 1014.166321,1049.098633 
	C678.035522,1048.991943 341.904633,1048.990845 5.773784,1049.107056 
	C1.770459,1049.108398 0.884941,1048.380493 0.886401,1044.274780 
	C1.009470,698.144958 1.012329,352.015137 0.866071,5.885367 
	C0.864153,1.346087 2.185954,0.909955 6.113680,0.912418 
	C169.096634,1.014656 332.079651,1.000000 495.531342,1.000000 
	C497.624634,4.085300 495.133972,5.637748 493.472778,7.322668 
	C480.720154,20.257250 467.559998,32.797901 455.043915,45.954197 
	C434.714203,67.323715 413.429779,87.750504 393.061554,109.062523 
	C380.710815,121.985550 366.574463,126.477379 349.248688,123.150894 
	C320.960266,117.719604 292.428345,113.692009 264.031311,108.878159 
	C243.680771,105.428360 223.232529,102.574760 202.914474,98.917488 
	C198.290298,98.085121 196.488297,99.254959 195.341339,103.892456 
	C192.018036,117.329445 190.837311,131.130768 188.573593,144.749130 
	C185.188812,165.111847 182.299576,185.552994 179.105148,205.946548 
	C176.503662,222.554703 174.051376,239.186890 171.385834,255.785477 
	C169.210175,269.333527 162.467529,279.228790 149.758331,285.491547 
	C110.915031,304.632507 72.445915,324.523621 33.853432,344.166901 
	C27.028273,347.640900 20.226671,351.165588 13.378909,354.598083 
	C7.913555,357.337616 7.407228,358.903687 10.021700,364.479401 
	C18.924831,383.466553 28.637936,402.052612 38.002392,420.811340 
	C46.930206,438.695374 56.072334,456.471588 64.944695,474.383698 
	C69.379013,483.335968 74.206001,492.085724 78.755272,500.980103 
	C84.734947,512.671021 84.763176,524.260925 78.776459,535.956604 
	C70.277229,552.560852 61.559364,569.052002 53.134171,585.694336 
	C38.539722,614.522949 23.561619,643.156555 9.153589,672.079529 
	C5.463068,679.487976 5.973660,680.584961 13.349977,684.415161 
	C55.929016,706.524292 98.530708,728.609985 141.764145,749.399170 
	C159.822495,758.082703 169.459595,771.188904 171.315857,790.955444 
	C172.684586,805.530457 175.539932,819.939270 177.682892,834.429016 
	C182.431931,866.539551 187.973297,898.526001 192.621170,930.651367 
	C192.764496,931.641968 193.003052,932.613892 193.189880,933.595947 
	C194.358917,939.740295 196.184387,941.246338 202.414566,940.336060 
	C209.662781,939.277161 216.922638,938.273621 224.150543,937.085266 
	C252.734528,932.385864 281.378998,928.067444 309.971527,923.427124 
	C324.591858,921.054382 339.145691,918.285156 353.810272,916.152649 
	C367.819916,914.115417 379.750549,917.815308 389.814392,927.902283 
	C422.063995,960.225952 454.390594,992.472900 486.636627,1024.800171 
	C490.763977,1028.937744 495.488342,1032.385010 499.569916,1036.562134 
	C502.120819,1039.172852 504.819275,1039.075195 507.467377,1036.565063 
	C510.007874,1034.156860 512.447510,1031.647827 514.930176,1029.181885 
	C541.174072,1003.114380 566.941895,976.564575 593.659607,950.979431 
	C602.084839,942.911316 610.670044,934.978394 618.529968,926.391663 
	C627.343689,916.763000 638.061096,914.294128 650.278503,915.864746 
	C666.124329,917.901794 681.908447,920.394043 697.735901,922.563599 
	C726.436218,926.497620 755.018616,931.194519 783.643860,935.613953 
	C790.223816,936.629822 796.745789,938.028259 803.382507,938.675110 
	C809.127380,939.235046 810.445496,938.463562 811.656128,932.667419 
	C813.596130,923.379150 814.799500,913.951416 816.302368,904.586060 
	C819.889099,882.234436 823.649292,859.909729 827.056274,837.528748 
	C829.461182,821.730530 831.478699,805.868896 834.506470,790.170898 
	C838.326416,770.365356 848.976318,755.741577 867.569824,747.342651 
	C902.202209,731.698608 935.637268,713.664368 969.432861,696.352173 
	C978.028809,691.948792 986.606628,687.507935 995.201782,683.101257 
	C1000.326843,680.473572 1000.824097,679.158691 998.265320,674.066345 
	C988.019043,653.674316 977.799072,633.269531 967.451660,612.927490 
	C954.010193,586.502686 940.141052,560.293152 927.138733,533.646851 
	C921.967773,523.049622 922.049927,512.262390 927.920166,501.999756 
	C937.195312,485.784790 945.094055,468.872681 953.692383,452.316620 
	C968.734375,423.353638 983.174377,394.083221 998.168518,365.095215 
	C1001.843628,357.990234 1001.327820,356.664307 994.359802,353.101837 
	C959.507935,335.283478 924.384338,318.004364 889.492432,300.264038 
	C878.963074,294.910522 868.417053,289.564087 857.726807,284.523499 
	C845.111938,278.575470 837.974670,268.613770 835.947083,254.894699 
	C832.125244,229.035568 827.779175,203.259567 823.571594,177.462570 
	C820.328613,157.579407 817.408020,137.646439 814.120728,117.771042 
	C813.442017,113.667595 813.297668,109.479797 812.187073,105.443680 
	C810.666443,99.917503 808.129944,97.897758 802.452087,98.299675 
	C792.803894,98.982651 783.376953,101.233818 773.850220,102.756561 
	C745.905151,107.223305 717.983337,111.840240 690.053955,116.407784 
	C677.076050,118.530182 664.066956,120.485649 651.133240,122.856674 
	C637.141357,125.421692 625.961487,121.134987 616.020752,110.989922 
	C591.884705,86.357826 567.547302,61.908386 542.754578,37.940636 
	C532.336548,27.869240 522.070618,17.646500 511.716614,7.512661 
	C510.128387,5.958229 507.909271,4.551973 508.822021,1.345531 
z"/>
<path fill="#F4D046" opacity="1.000000" stroke="none" 
	d="
M508.536804,1.000000 
	C512.071167,6.024524 516.779175,9.530587 520.870361,13.578822 
	C554.026917,46.386875 587.359680,79.017105 620.441589,111.899895 
	C628.788879,120.196983 638.323120,122.673386 649.639160,120.796867 
	C685.774841,114.804565 721.940979,108.996399 758.092651,103.100426 
	C772.223816,100.795784 786.316040,98.225510 800.485840,96.193665 
	C810.367188,94.776756 813.178833,97.043488 814.732727,106.768723 
	C820.328430,141.788864 825.826721,176.824554 831.373657,211.852478 
	C833.717529,226.653549 836.137024,241.442780 838.436646,256.250671 
	C840.400146,268.894440 847.776611,277.136261 858.986816,282.662231 
	C882.723267,294.362976 906.387817,306.210663 930.030701,318.099792 
	C953.673645,329.989014 977.226929,342.056793 1000.893860,353.897736 
	C1004.147827,355.525757 1004.927917,356.955200 1003.159180,360.375244 
	C978.770630,407.533630 955.493225,455.263794 930.348999,502.032776 
	C924.500244,512.911560 924.455139,523.684692 929.968628,534.533875 
	C945.954346,565.989990 962.034546,597.398132 978.048767,628.839844 
	C986.207153,644.857666 994.278198,660.919922 1002.453918,676.928833 
	C1003.753052,679.472717 1004.179260,681.108521 1000.925720,682.757019 
	C960.544983,703.216187 920.720032,724.769592 879.821411,744.209351 
	C877.116455,745.494995 874.379150,746.722839 871.606689,747.854614 
	C850.091309,756.637207 838.878906,773.216431 835.633911,795.671692 
	C829.108154,840.829834 821.521790,885.819580 814.332153,930.872253 
	C812.470825,942.536194 812.155273,942.759277 800.492126,940.780212 
	C754.848083,933.034973 709.046753,926.329651 663.192627,919.970703 
	C659.235107,919.421814 655.241943,919.007324 651.345764,918.160278 
	C638.812866,915.435547 628.598572,919.140747 619.614868,928.169800 
	C594.820312,953.089417 569.770752,977.755432 544.820801,1002.520508 
	C532.406738,1014.842590 519.874268,1027.048950 507.656006,1039.562134 
	C504.554779,1042.738159 502.495239,1042.670410 499.530945,1039.754272 
	C483.854614,1024.332886 467.993683,1009.098633 452.374146,993.620361 
	C432.023621,973.453979 411.455109,953.485046 391.723450,932.724854 
	C379.293091,919.646484 365.162201,915.953003 347.842682,919.015015 
	C314.234955,924.956543 280.517456,930.290527 246.804993,935.620422 
	C230.699631,938.166687 214.704559,941.497803 198.371964,942.585205 
	C193.835922,942.887146 192.061844,941.717712 191.337936,936.946960 
	C185.642822,899.414307 179.606918,861.933533 173.738358,824.427063 
	C171.704865,811.430847 169.597397,798.438171 167.976456,785.387634 
	C166.183228,770.949829 158.937790,760.730469 145.981323,754.239441 
	C116.517395,739.478333 87.079353,724.664490 57.703888,709.728333 
	C40.642193,701.053223 23.761383,692.022583 6.707157,683.332520 
	C2.993368,681.440125 2.607268,679.588318 4.487906,675.938293 
	C28.043741,630.220154 51.227039,584.308533 75.039383,538.725159 
	C82.170830,525.073608 82.347099,512.577576 75.233223,498.911102 
	C51.872025,454.031769 28.935675,408.929016 7.019541,363.319580 
	C3.611921,356.228027 2.868769,357.232788 10.219769,353.512146 
	C56.847988,329.911896 103.416656,306.192902 150.138733,282.779999 
	C161.361526,277.156128 167.157455,268.132294 169.006393,256.299194 
	C175.741318,213.196075 182.260727,170.059311 188.920197,126.944313 
	C190.241333,118.390862 191.914383,109.891876 193.246185,101.339897 
	C193.943832,96.859962 195.932495,95.416786 200.606583,96.234474 
	C218.975159,99.447884 237.411209,102.273705 255.812683,105.301315 
	C285.383698,110.166656 314.946808,115.079872 344.514221,119.967178 
	C348.127869,120.564491 351.738647,121.189369 355.365692,121.694092 
	C367.919617,123.441055 378.942535,119.951637 387.843628,111.041138 
	C423.761719,75.085098 459.523438,38.972897 495.334656,2.910130 
	C495.682312,2.560030 495.917999,2.098710 496.102966,1.344658 
	C500.024536,1.000000 504.049103,1.000000 508.536804,1.000000 
z"/>
<path fill="#1A3E56" opacity="1.000000" stroke="none" 
	d="
M533.828674,55.171967 
	C556.793945,78.402550 579.502319,101.389931 602.231201,124.357094 
	C610.220337,132.429993 610.421204,137.129333 602.477051,145.045593 
	C583.956299,163.501236 565.388062,181.910675 546.686768,200.182968 
	C536.445435,210.189362 532.645935,209.697464 524.311951,198.077347 
	C520.074585,192.169159 520.082886,192.178436 525.363098,187.443573 
	C541.976685,172.545883 558.530518,157.580688 575.244629,142.796692 
	C578.051941,140.313568 578.275269,138.883194 575.450439,136.185654 
	C552.808472,114.564049 530.281128,92.821869 507.813202,71.019173 
	C505.411285,68.688370 503.973358,68.405968 501.423798,70.962730 
	C478.959747,93.489998 456.409973,115.932938 433.715454,138.227707 
	C430.784424,141.107132 431.502930,142.493500 434.110291,144.792007 
	C447.351318,156.464615 460.465790,168.280869 473.617889,180.054291 
	C475.230591,181.497940 476.851807,182.937500 478.386383,184.462158 
	C486.687012,192.709259 484.112610,203.129166 472.878845,206.894897 
	C467.743683,208.616287 464.255127,205.779953 460.963898,202.565704 
	C447.976318,189.881958 435.021942,177.164246 422.063751,164.450439 
	C415.409058,157.921280 408.746552,151.399765 402.134216,144.827881 
	C394.379150,137.120148 394.243561,132.295532 402.011383,124.528343 
	C426.856537,99.685074 451.804779,74.944901 476.709808,50.161465 
	C481.667938,45.227570 486.539764,40.204567 491.576660,35.352737 
	C500.121399,27.121960 505.920746,27.111343 514.274292,35.360874 
	C520.791992,41.797363 527.150574,48.394852 533.828674,55.171967 
z"/>
<path fill="#1A3D57" opacity="1.000000" stroke="none" 
	d="
M197.002014,207.002411 
	C200.775009,182.542633 204.433456,158.514679 208.274872,134.516006 
	C209.992004,123.788376 215.420868,119.854927 226.656937,121.462265 
	C246.101776,124.243904 265.502136,127.338219 284.915009,130.340988 
	C307.453430,133.827209 329.972717,137.439117 352.525543,140.828766 
	C362.603027,142.343369 366.090027,146.379791 364.497131,156.312286 
	C360.253693,182.772736 355.824066,209.203369 351.451355,235.643021 
	C351.261688,236.789963 350.909302,237.910645 350.620728,239.040482 
	C348.384460,247.796341 344.468201,250.761063 336.604736,249.655411 
	C328.399902,248.501740 324.195923,243.841934 325.111908,235.136597 
	C326.294647,223.895660 328.376221,212.747269 330.141418,201.570190 
	C331.880951,190.555298 333.606201,179.536072 335.565155,168.559341 
	C336.098907,165.568588 335.054596,164.857925 332.375854,164.458267 
	C302.739136,160.036560 273.125000,155.463470 243.487671,151.045975 
	C236.257034,149.968231 232.779587,152.350311 231.499329,159.677429 
	C228.204620,178.533203 225.232132,197.445175 222.107788,216.330872 
	C220.912445,223.556259 219.659805,230.772202 218.423264,237.990738 
	C216.957321,246.548508 219.889038,251.147522 228.448029,252.607346 
	C245.347992,255.489807 262.304504,258.039215 279.222015,260.821411 
	C282.817352,261.412689 286.468719,262.068359 289.879059,263.293488 
	C296.564941,265.695282 298.795044,269.742065 297.430298,275.930176 
	C295.992584,282.449463 289.799896,287.735596 283.938324,286.959930 
	C266.278931,284.623047 248.635635,282.158386 231.005905,279.606293 
	C220.793610,278.127930 210.630783,276.310181 200.424622,274.786285 
	C192.692520,273.631805 189.054688,269.308044 189.749924,261.401398 
	C191.340714,243.309662 194.339676,225.402252 197.002014,207.002411 
z"/>
<path fill="#1A3D57" opacity="1.000000" stroke="none" 
	d="
M68.706657,346.743347 
	C97.523788,332.084045 126.017715,317.611145 154.513443,303.141815 
	C155.849564,302.463348 157.190445,301.792389 158.547623,301.157532 
	C166.984207,297.211243 172.062225,298.633240 176.317566,306.856781 
	C184.808121,323.264954 193.012985,339.821014 201.330215,356.318787 
	C205.526398,364.642181 209.844421,372.907654 213.864365,381.315491 
	C218.442230,390.890167 213.197052,399.504150 202.534256,400.447723 
	C196.605194,400.972412 193.784470,397.161316 191.473816,392.742432 
	C184.917618,380.204346 178.483688,367.602325 171.979645,355.036896 
	C168.306839,347.941223 164.479141,340.922943 160.949982,333.757141 
	C159.569748,330.954651 158.390366,330.150635 155.295685,331.760010 
	C126.941628,346.505463 98.512360,361.106567 70.068718,375.678955 
	C67.409660,377.041260 66.979912,378.351532 68.366112,381.121399 
	C81.552071,407.469177 94.516014,433.928040 108.298035,459.974823 
	C109.747040,462.713318 111.750221,464.170837 114.821411,464.711121 
	C119.983070,465.619141 124.750015,464.721527 129.338364,462.391205 
	C143.288101,455.306488 157.234909,448.216003 171.186279,441.134460 
	C173.116135,440.154907 175.016800,439.095581 177.013596,438.273926 
	C186.279938,434.461121 194.711746,439.611542 195.602936,449.624878 
	C196.077652,454.958862 192.693848,458.005798 188.595413,460.169861 
	C179.029541,465.220856 169.315338,469.990723 159.668365,474.888550 
	C144.529144,482.574829 129.409866,490.300537 114.254814,497.955383 
	C104.764748,502.748840 100.956276,501.631653 96.170006,492.371918 
	C76.373077,454.071747 56.628242,415.744629 36.920296,377.398590 
	C32.499352,368.796692 33.913773,364.443207 42.524464,359.972260 
	C51.091728,355.523865 59.759899,351.269806 68.706657,346.743347 
z"/>
<path fill="#1A3E56" opacity="1.000000" stroke="none" 
	d="
M658.152527,895.953125 
	C655.638428,895.374146 653.476624,895.052551 651.443970,894.354614 
	C644.684937,892.033630 642.205017,887.960388 643.403381,880.899231 
	C648.305664,852.013977 653.323792,823.148254 658.161194,794.252197 
	C658.640564,791.388916 659.730713,790.402649 662.589722,790.185669 
	C677.882019,789.024902 680.663330,792.063416 678.405396,807.397278 
	C675.470520,827.328369 672.771484,847.294373 669.790344,867.218323 
	C669.118225,871.710510 669.546448,873.755493 675.032288,874.567261 
	C703.359192,878.758789 731.609375,883.467224 760.001526,887.240906 
	C767.321045,888.213745 773.313293,884.431213 774.627930,877.190552 
	C779.980530,847.709778 785.133484,818.192688 790.462769,788.707581 
	C791.026917,785.586487 789.603577,785.163391 787.071350,784.751526 
	C765.055176,781.170410 743.066467,777.420410 721.055176,773.808472 
	C712.230347,772.360413 709.021545,768.648621 709.952271,760.528076 
	C710.668884,754.275513 713.912720,750.957397 720.172668,751.396362 
	C727.627319,751.919067 735.040466,753.144165 742.445496,754.241577 
	C763.690247,757.389893 784.935059,760.542908 806.151489,763.874695 
	C813.860352,765.085327 816.876587,768.518311 815.953735,776.181519 
	C814.262756,790.222595 811.864990,804.178650 809.762451,818.170227 
	C805.779541,844.675354 801.802185,871.181335 797.806091,897.684448 
	C797.409119,900.317932 796.956116,902.945862 796.431458,905.556763 
	C794.679993,914.273682 791.249939,916.832336 782.385559,915.628296 
	C773.148682,914.373596 763.939514,912.905640 754.733032,911.437805 
	C722.673218,906.326355 690.619812,901.174500 658.152527,895.953125 
z"/>
<path fill="#1A3E56" opacity="1.000000" stroke="none" 
	d="
M671.042358,178.933533 
	C674.077942,197.431915 677.086914,215.491577 680.049805,233.558777 
	C681.465515,242.191910 679.075806,246.125854 671.601196,247.690918 
	C664.364685,249.206131 658.653015,245.505249 657.134827,237.520218 
	C653.653442,219.209244 650.486755,200.837860 647.268188,182.477707 
	C645.716736,173.627853 644.038513,164.783981 642.962036,155.871643 
	C641.856812,146.721497 644.208130,143.819611 653.343750,142.293213 
	C669.923950,139.522949 686.526978,136.883636 703.139343,134.311829 
	C728.964172,130.313843 754.794617,126.348991 780.643921,122.513351 
	C790.801331,121.006142 794.492432,123.715782 796.062378,133.851028 
	C802.559631,175.797073 808.949951,217.759720 815.345154,259.721527 
	C816.269836,265.789062 811.346558,272.256897 804.883789,273.341949 
	C782.560791,277.089996 760.223877,280.754761 737.887634,284.423401 
	C733.124329,285.205719 728.335388,285.831757 723.569519,286.599335 
	C716.058411,287.809052 711.478882,284.960907 710.193604,278.206696 
	C708.615356,269.912872 711.695007,265.039795 719.752808,263.750275 
	C732.408997,261.724945 745.101379,259.924347 757.783691,258.064667 
	C764.866699,257.026062 771.976685,256.162506 779.045044,255.035172 
	C787.493530,253.687698 790.823303,249.649246 789.526123,241.202942 
	C787.278137,226.566483 784.475281,212.015854 781.970459,197.418030 
	C779.859802,185.116776 777.999878,172.770386 775.733337,160.498596 
	C773.896179,150.551910 771.506104,148.809570 761.305786,150.282684 
	C737.253296,153.756302 713.238403,157.490143 689.208740,161.121857 
	C684.272949,161.867813 679.356323,162.781357 674.399231,163.332245 
	C670.392029,163.777542 668.231384,165.074417 669.521423,169.640350 
	C670.330261,172.503311 670.526062,175.539474 671.042358,178.933533 
z"/>
<path fill="#1A3E56" opacity="1.000000" stroke="none" 
	d="
M159.556793,734.504028 
	C122.440971,715.963806 85.664185,697.596008 48.914333,679.174561 
	C34.168858,671.783142 33.325726,669.356750 40.823681,654.562378 
	C58.955322,618.786499 77.164474,583.049805 95.413986,547.333862 
	C100.862656,536.670349 105.845695,535.095337 116.316002,540.543457 
	C142.154175,553.988159 167.928787,567.555725 193.820740,580.895691 
	C197.279434,582.677612 197.626740,584.223511 195.526047,587.269470 
	C193.263458,590.550110 191.123642,593.983398 189.465820,597.595886 
	C187.435974,602.018982 185.251923,602.737427 180.718307,600.397461 
	C160.458282,589.940796 139.988190,579.891235 119.598160,569.686279 
	C113.159531,566.463806 113.143372,566.440552 109.807999,572.882996 
	C95.499115,600.521606 81.270531,628.202209 66.823654,655.768433 
	C64.942146,659.358582 65.106865,660.925354 68.960350,662.879028 
	C97.609680,677.403320 126.163322,692.118103 154.652924,706.953674 
	C158.420853,708.915771 160.181366,708.703918 162.232407,704.647583 
	C173.046219,683.260925 184.263412,662.078430 195.127014,640.716492 
	C196.982895,637.067200 198.727661,636.149109 202.386993,638.197571 
	C205.858124,640.140747 209.582550,641.681946 213.308014,643.105774 
	C216.881195,644.471375 217.621201,646.044495 215.710831,649.736450 
	C203.626389,673.090088 191.804581,696.579529 179.892212,720.022217 
	C177.479828,724.769592 174.830444,729.412109 172.700516,734.282349 
	C171.064468,738.023499 169.024231,738.970703 165.436035,736.934753 
	C163.715607,735.958557 161.757233,735.401794 159.556793,734.504028 
z"/>
<path fill="#183C57" opacity="1.000000" stroke="none" 
	d="
M459.487244,258.640686 
	C460.964661,255.232269 462.263733,252.168213 463.601837,249.121292 
	C465.665253,244.422943 469.071869,243.673691 472.894806,247.263046 
	C481.883209,255.702316 490.790894,264.227631 499.719574,272.730377 
	C504.144348,276.944061 504.140167,276.962494 508.213989,272.077545 
	C515.255920,263.633575 522.374756,255.251282 529.270447,246.689438 
	C531.346741,244.111435 533.122131,243.778702 536.025513,245.310867 
	C544.695496,249.886139 549.677734,257.226715 550.914673,266.584961 
	C556.702637,310.374237 547.682251,349.704163 515.422424,381.888977 
	C511.553986,385.748474 508.415985,390.341064 504.949463,394.601990 
	C503.735077,396.094757 502.594086,397.729645 500.748962,395.253754 
	C487.632050,377.652710 472.334961,361.670197 461.872528,342.095490 
	C454.413818,328.140625 453.423981,313.194885 454.201569,297.896881 
	C454.632904,289.411224 455.285065,280.937042 455.770264,272.453827 
	C456.041504,267.711548 457.695221,263.361511 459.487244,258.640686 
z"/>
<path fill="#173C57" opacity="1.000000" stroke="none" 
	d="
M376.359894,403.679382 
	C356.970673,394.194855 340.851471,381.391479 328.854797,363.726959 
	C324.833954,357.806488 320.973816,351.776855 317.044525,345.794312 
	C313.451904,340.324432 312.012939,334.205078 312.006042,327.775238 
	C311.997772,320.051575 315.757477,316.219910 323.491943,316.735718 
	C333.617767,317.411041 343.723877,318.529663 353.794739,319.803406 
	C357.387604,320.257812 358.898315,319.419586 359.423950,315.740753 
	C360.647064,307.180389 361.842987,298.600983 364.074951,290.216888 
	C365.079712,286.442688 366.715576,283.022461 369.608368,280.333313 
	C374.679626,275.619049 381.754852,276.009399 387.450867,281.716705 
	C393.934387,288.213104 399.287628,295.688446 404.638794,303.112854 
	C413.008759,314.725708 421.146301,326.505951 429.412476,338.193909 
	C431.313843,340.882324 432.144745,343.834961 432.143036,347.099182 
	C432.131073,369.920349 432.127930,392.741577 432.162262,415.562683 
	C432.166473,418.352631 432.078522,420.769592 428.154388,419.630615 
	C410.921051,414.628693 393.155334,411.366699 376.359894,403.679382 
z"/>
<path fill="#173C57" opacity="1.000000" stroke="none" 
	d="
M262.057678,427.943024 
	C259.809662,423.075378 257.528961,418.619476 255.715988,413.980743 
	C253.529404,408.386017 253.488953,402.763519 257.822021,398.050720 
	C262.114380,393.382141 267.750366,393.621124 273.185150,395.130432 
	C284.078552,398.155701 294.908112,401.431335 305.681122,404.863831 
	C315.660370,408.043518 325.503479,411.648621 335.464874,414.886963 
	C339.116913,416.074188 341.965942,418.049255 344.197296,421.145935 
	C357.821930,440.054260 371.439636,458.968109 385.189301,477.785370 
	C387.531494,480.990814 386.687897,482.081665 383.248871,483.160461 
	C360.874420,490.179077 338.557037,497.379272 316.194916,504.437531 
	C311.933960,505.782440 307.640686,505.219940 303.418121,503.880371 
	C286.456177,498.499390 269.462341,493.217682 252.528275,487.750671 
	C246.461029,485.791931 240.831360,482.881836 236.411682,478.107391 
	C228.965454,470.063416 230.523285,462.096893 240.794876,458.217010 
	C249.734329,454.840302 257.902191,450.090576 266.284180,445.674377 
	C269.104858,444.188232 269.800507,442.696564 268.142334,439.824524 
	C265.982605,436.083801 264.185425,432.133728 262.057678,427.943024 
z"/>
<path fill="#173C57" opacity="1.000000" stroke="none" 
	d="
M320.118988,533.704651 
	C341.813660,540.925110 363.110748,548.032898 384.408173,555.139587 
	C386.730865,555.914673 387.825287,556.899963 385.894928,559.382935 
	C375.369202,572.921814 365.928955,587.256409 355.331635,600.758118 
	C340.035156,620.246887 319.435577,630.362427 295.916565,635.742554 
	C288.947388,637.336731 281.950836,638.922302 275.136475,641.054138 
	C266.419281,643.781250 259.629517,639.051819 252.463989,635.822266 
	C250.172501,634.789490 252.069870,632.876953 252.697678,631.538086 
	C257.853516,620.542908 262.975372,609.528748 268.367889,598.649475 
	C269.882812,595.593140 269.501617,594.072205 266.524994,592.334839 
	C255.170639,585.707703 244.028229,578.717163 232.664810,572.106140 
	C229.519379,570.276245 229.624847,569.420044 231.796799,566.474304 
	C241.452057,553.379211 255.821243,548.615784 270.221954,543.839478 
	C280.954681,540.279724 291.802216,537.067322 302.552673,533.559509 
	C308.325989,531.675720 314.002045,531.796326 320.118988,533.704651 
z"/>
<path fill="#173C57" opacity="1.000000" stroke="none" 
	d="
M768.723328,560.270264 
	C776.506348,566.838013 776.223267,572.238342 767.577881,577.067566 
	C758.144287,582.337036 748.460083,587.174194 738.749573,591.922546 
	C735.464600,593.528870 734.808472,594.948181 736.582764,598.319031 
	C741.927185,608.472351 746.771179,618.889099 752.110657,629.045227 
	C753.785889,632.231750 753.184692,634.177979 750.662476,636.324158 
	C744.878540,641.245911 738.282166,644.472412 730.929138,641.614258 
	C721.070801,637.782227 710.676147,636.505371 700.615784,633.749084 
	C682.827332,628.875244 667.937988,619.106689 655.097656,606.050537 
	C643.467346,594.224731 633.943237,580.799683 625.585999,566.541565 
	C620.849609,558.460876 621.996094,554.999390 630.931885,551.901428 
	C648.680115,545.748169 666.583984,540.045227 684.395081,534.071289 
	C688.582642,532.666748 692.698547,533.657227 696.743958,534.242554 
	C722.381775,537.952271 746.699097,545.438416 768.723328,560.270264 
z"/>
<path fill="#183C57" opacity="1.000000" stroke="none" 
	d="
M640.856689,450.863037 
	C647.860535,441.515808 654.754700,432.530457 661.390747,423.358246 
	C664.555603,418.983734 668.530945,415.994263 673.586121,414.317902 
	C691.426147,408.402039 709.229553,402.372009 727.123901,396.625366 
	C735.612976,393.899139 743.522583,395.507996 750.693542,400.955322 
	C753.240967,402.890411 753.821716,404.617828 752.316284,407.671631 
	C747.167480,418.116089 742.508423,428.803436 737.288391,439.210449 
	C735.539734,442.696625 736.474731,444.166901 739.506165,445.803223 
	C750.781311,451.889374 761.904907,458.257904 773.216064,464.274841 
	C776.591248,466.070251 776.273132,467.075439 774.032043,469.890015 
	C757.466125,490.694885 733.951599,496.897675 709.447815,500.625031 
	C683.690002,504.543152 659.560669,498.067322 636.243591,487.593140 
	C632.147156,485.752960 628.069763,483.805603 623.825562,482.377350 
	C619.555603,480.940399 619.948364,479.158783 622.283691,476.089661 
	C628.533752,467.875519 634.538635,459.474792 640.856689,450.863037 
z"/>
<path fill="#1B3E56" opacity="1.000000" stroke="none" 
	d="
M336.823914,868.934875 
	C333.389160,845.637817 330.192291,822.719849 326.521820,799.878052 
	C325.735535,794.984863 327.879120,793.446045 331.592896,791.885071 
	C342.857941,787.149780 346.643982,789.007324 348.735596,801.051025 
	C353.206329,826.794189 357.574554,852.555420 361.880615,878.326721 
	C363.598236,888.606323 360.451141,893.169678 350.353424,894.819824 
	C329.491577,898.229065 308.593872,901.418640 287.715240,904.725647 
	C268.154968,907.823853 248.600189,910.956787 229.043274,914.076294 
	C228.549896,914.154968 228.061310,914.263550 227.568146,914.343872 
	C215.795364,916.260742 212.318436,914.107605 210.410599,902.444641 
	C205.789169,874.193054 201.489532,845.888977 197.012024,817.613708 
	C194.981491,804.790955 192.830521,791.987366 190.745438,779.173279 
	C189.207306,769.720520 192.115173,765.267822 201.623093,763.771362 
	C230.890900,759.165039 260.197479,754.805481 289.478699,750.283203 
	C292.516022,749.814148 294.210480,750.438904 294.493134,753.850220 
	C294.864014,758.325684 295.427734,762.797058 296.172546,767.225769 
	C296.708435,770.412292 295.582092,771.713745 292.440765,772.228088 
	C269.611694,775.966553 246.810730,779.876648 223.983673,783.627686 
	C215.262375,785.060852 215.141037,784.951477 216.486908,793.705933 
	C221.191071,824.305054 225.996155,854.888611 230.686172,885.489868 
	C231.189117,888.771484 232.018356,890.469482 236.030731,889.830811 
	C268.413147,884.675903 300.821655,879.682129 333.246582,874.801208 
	C336.985992,874.238281 338.249115,872.885193 336.823914,868.934875 
z"/>
<path fill="#1A3E56" opacity="1.000000" stroke="none" 
	d="
M906.618896,678.614685 
	C917.320923,673.139954 927.642578,667.732422 938.103027,662.608215 
	C941.055359,661.161987 941.544250,659.842529 940.044739,656.913147 
	C925.030273,627.582642 910.083618,598.216980 895.268860,568.785217 
	C893.523132,565.317139 891.805603,565.814392 889.013000,567.239807 
	C870.187988,576.848694 851.326721,586.388000 832.412476,595.820007 
	C820.395142,601.812683 817.040222,600.084045 813.182251,587.151245 
	C811.974609,583.102905 812.536804,581.129822 816.547180,579.128784 
	C843.945740,565.457947 871.225647,551.547607 898.461731,537.554749 
	C901.839783,535.819275 903.435730,536.000427 905.288025,539.611328 
	C927.014038,581.962646 948.868469,624.248474 970.826111,666.480286 
	C972.606750,669.904968 971.848267,671.265198 968.627502,672.896179 
	C926.017700,694.472717 883.450195,716.133301 840.940918,737.907166 
	C837.610657,739.613037 836.069092,739.132141 834.402161,735.856140 
	C819.836426,707.230286 805.205933,678.636719 790.398315,650.135620 
	C788.609680,646.693054 789.176514,645.206421 792.525146,643.739136 
	C796.327820,642.072937 800.038330,640.128174 803.588684,637.974426 
	C806.761353,636.049683 808.416565,636.665466 810.131897,639.974976 
	C821.237488,661.400879 832.645691,682.670471 843.650879,704.147034 
	C845.779236,708.300537 847.567200,708.814880 851.600403,706.710510 
	C869.746582,697.242310 888.046631,688.068848 906.618896,678.614685 
z"/>
<path fill="#183C57" opacity="1.000000" stroke="none" 
	d="
M639.270203,287.908234 
	C642.438843,297.467957 644.197388,306.966095 645.973389,316.450165 
	C646.671387,320.177521 647.464294,322.208862 652.317993,321.233643 
	C661.102600,319.468567 669.968933,317.707489 679.024902,317.747681 
	C691.174561,317.801605 697.511169,328.364349 691.020996,338.844025 
	C679.177673,357.967316 665.684570,375.970673 651.933350,393.763550 
	C649.771912,396.560242 646.432922,397.430878 643.283508,398.467010 
	C622.267822,405.380981 601.232483,412.235291 580.210876,419.131287 
	C574.188965,421.106720 574.061829,421.078949 574.075256,414.857697 
	C574.122009,393.197113 574.263611,371.536591 574.236816,349.876190 
	C574.229919,344.310150 575.835876,339.504242 579.108948,335.015900 
	C589.705566,320.484802 600.190918,305.872101 610.650757,291.241913 
	C613.954407,286.621094 618.304932,283.471100 623.403015,281.138214 
	C631.994995,277.206543 635.625488,278.643585 639.270203,287.908234 
z"/>
<path fill="#183C57" opacity="1.000000" stroke="none" 
	d="
M475.886810,789.913818 
	C470.267914,796.782349 471.773926,796.593445 466.598389,789.828979 
	C453.299713,772.447754 452.861664,752.479004 454.434113,732.191528 
	C456.571960,704.609680 468.401794,681.176147 486.486786,660.624512 
	C491.324097,655.127380 496.108459,649.578125 500.738922,643.907349 
	C502.822052,641.356201 504.152527,640.897827 506.279663,643.959473 
	C519.855042,663.498840 533.557434,682.950195 547.254456,702.404785 
	C549.054443,704.961365 549.820923,707.686035 549.807129,710.815186 
	C549.723755,729.794861 549.737244,748.774841 549.718384,767.754761 
	C549.707764,778.420288 544.631592,786.025391 535.672729,791.436829 
	C532.938965,793.088196 531.357483,792.501831 529.533752,790.040710 
	C523.491211,781.886108 517.260803,773.870178 511.063812,765.830872 
	C505.007507,757.973938 501.395386,758.001770 495.128632,765.849670 
	C488.794525,773.781860 482.443085,781.700134 475.886810,789.913818 
z"/>
<path fill="#173C57" opacity="1.000000" stroke="none" 
	d="
M314.769867,716.193848 
	C310.508606,711.791565 310.691437,707.071350 313.332367,702.581421 
	C325.932098,681.160278 339.918365,660.710571 356.745880,642.331726 
	C360.012146,638.764343 364.484680,637.053589 369.006409,635.974060 
	C388.459808,631.329407 407.156128,624.279297 426.150940,618.187988 
	C430.243591,616.875427 431.687073,617.259216 431.634155,622.002563 
	C431.383240,644.485168 431.382324,666.971191 431.406677,689.455811 
	C431.411407,693.813721 430.216614,697.599365 427.677673,701.092468 
	C416.521484,716.441284 405.325684,731.762573 394.323639,747.221497 
	C390.473145,752.631775 385.278412,755.934265 379.335083,758.355652 
	C371.496857,761.549194 367.236877,759.199219 365.769684,750.903503 
	C364.378754,743.038757 363.035126,735.165649 361.626984,727.304016 
	C359.575226,715.849060 359.575409,715.974915 347.715820,717.608215 
	C340.961060,718.538574 334.147461,719.078003 327.346832,719.625610 
	C322.937683,719.980591 318.700439,719.279419 314.769867,716.193848 
z"/>
<path fill="#183C57" opacity="1.000000" stroke="none" 
	d="
M658.834717,653.166138 
	C668.751709,666.777832 678.422241,680.127869 688.183411,693.411377 
	C691.552002,697.995605 693.249817,703.101013 693.670288,708.699158 
	C694.328369,717.461060 689.999817,721.579590 681.322632,720.303589 
	C671.438904,718.850220 661.547180,717.421204 651.712708,715.677795 
	C647.954834,715.011597 646.403259,715.729492 645.745667,719.805542 
	C644.315491,728.670105 642.265747,737.435730 640.416809,746.230774 
	C640.111084,747.685181 639.640137,749.125183 639.074463,750.501587 
	C634.767029,760.982666 625.934753,762.721069 618.487549,754.255859 
	C609.241516,743.746094 600.883606,732.510010 592.915955,721.005798 
	C587.703674,713.479919 582.851135,705.705872 577.716919,698.124512 
	C574.800049,693.817444 573.370789,689.106323 573.608582,683.988953 
	C574.560425,663.501648 573.634338,643.005066 574.030273,622.516724 
	C574.149353,616.351257 574.188721,616.345032 579.784180,618.210205 
	C599.036743,624.627686 618.207153,631.309143 637.580383,637.339050 
	C646.603882,640.147644 653.919739,644.563171 658.834717,653.166138 
z"/>
<path fill="#1B3E56" opacity="1.000000" stroke="none" 
	d="
M942.733032,424.718262 
	C930.213806,449.205627 917.751221,473.306946 905.550781,497.540253 
	C903.650513,501.314575 902.101624,501.712341 898.416504,499.830597 
	C870.252380,485.448975 842.003723,471.231720 813.699768,457.126862 
	C810.124817,455.345337 808.879456,453.798401 811.234070,450.040741 
	C813.430969,446.534851 815.182434,442.705231 816.750244,438.863159 
	C818.112732,435.524384 819.715149,435.347687 822.782898,436.900116 
	C844.314636,447.796539 865.936035,458.515900 887.525391,469.298492 
	C893.271423,472.168243 893.280029,472.185883 896.299500,466.338318 
	C910.732361,438.387604 925.067139,410.385498 939.677979,382.528107 
	C941.965698,378.166290 941.647461,376.202667 937.013977,373.891418 
	C908.270203,359.553528 879.646606,344.972382 851.095581,330.253693 
	C847.251343,328.271912 845.697571,329.122955 843.880615,332.668488 
	C833.177246,353.554626 822.287354,374.345215 811.453552,395.164520 
	C808.273315,401.275848 808.259888,401.278046 801.844788,398.296478 
	C798.524231,396.753235 795.291321,394.989624 791.884216,393.674133 
	C788.868530,392.509735 788.722656,391.009583 790.089722,388.346832 
	C804.988892,359.326111 819.830200,330.275482 834.595764,301.186554 
	C836.023804,298.373108 837.421143,298.305542 840.048828,299.646545 
	C882.891174,321.510071 925.766418,343.309418 968.694458,365.004059 
	C971.671997,366.508881 972.006958,367.746185 970.495422,370.644623 
	C961.183655,388.500061 952.061279,406.454254 942.733032,424.718262 
z"/>
<path fill="#1B3E56" opacity="1.000000" stroke="none" 
	d="
M537.186890,938.193359 
	C549.599060,926.801697 561.647644,915.536621 573.960083,904.567810 
	C577.135620,901.738647 576.631470,900.222595 573.833862,897.634583 
	C556.713806,881.797424 539.814636,865.721069 522.644653,849.938843 
	C519.394226,846.951050 519.530945,845.183350 522.836426,842.663696 
	C525.608032,840.551147 528.249268,838.183105 530.577332,835.594604 
	C533.433472,832.418945 535.444519,833.072510 538.266174,835.826416 
	C555.671875,852.814331 573.242126,869.633667 590.757446,886.509216 
	C593.876465,889.514465 596.787720,892.782227 600.168579,895.456238 
	C603.846924,898.365662 603.116760,900.312073 600.129211,903.314270 
	C580.622070,922.916809 561.293762,942.697266 541.912170,962.424744 
	C529.184753,975.379456 516.342651,988.225464 503.828186,1001.382874 
	C500.615601,1004.760437 498.980377,1004.309143 496.070770,1001.148315 
	C465.947723,968.423950 435.716827,935.798523 405.397125,903.256226 
	C402.793793,900.462036 403.103058,898.930725 405.655090,896.388000 
	C426.424469,875.694336 447.098145,854.903687 467.675323,834.018799 
	C470.178711,831.478149 471.890137,830.923157 474.531647,833.672729 
	C477.059937,836.304565 479.885590,838.700500 482.818573,840.879883 
	C485.819122,843.109741 485.439423,844.648071 482.811340,846.987732 
	C465.516693,862.383362 448.344452,877.916382 431.132080,893.404419 
	C426.287048,897.764099 426.297668,897.752380 430.922699,902.270935 
	C452.967529,923.807922 475.073090,945.283569 496.974030,966.965942 
	C500.243286,970.202698 502.163818,970.728455 505.736969,967.266357 
	C515.901855,957.416992 526.496155,948.010803 537.186890,938.193359 
z"/>
<path fill="#173C57" opacity="1.000000" stroke="none" 
	d="
M543.573792,544.402344 
	C531.508484,563.783813 509.657867,571.559326 487.721771,564.518066 
	C467.153259,557.915771 454.389160,537.953125 455.811951,514.612061 
	C457.338135,489.574585 478.148682,470.259918 503.160187,470.667267 
	C529.566284,471.097321 549.079346,490.181580 549.868713,516.142639 
	C550.168945,526.015991 548.343201,535.327393 543.573792,544.402344 
z"/>
<path fill="#183D57" opacity="1.000000" stroke="none" 
	d="
M241.593597,302.437347 
	C253.010117,304.281982 264.040558,305.808716 274.960938,307.907776 
	C288.397186,310.490448 292.951996,317.184143 289.959991,330.312653 
	C288.873627,335.079620 289.955505,338.720215 292.387177,342.477722 
	C299.987640,354.222229 306.080933,366.822235 312.998108,378.955322 
	C313.538605,379.903351 314.667725,380.956757 313.671600,382.055695 
	C312.748718,383.073822 311.419373,382.270325 310.388947,381.969696 
	C300.816071,379.177368 291.288696,376.228638 281.711029,373.453186 
	C270.393097,370.173431 259.455048,370.681305 248.823624,376.384949 
	C243.037018,379.489349 237.939316,377.537598 234.731339,371.610992 
	C222.541031,349.089844 210.398758,326.542633 198.244904,304.001770 
	C197.312225,302.272003 196.006805,300.625671 197.322906,298.465912 
	C198.792938,296.053528 201.003128,296.628754 203.119400,296.928467 
	C215.801804,298.724854 228.479477,300.554688 241.593597,302.437347 
z"/>
<path fill="#193D57" opacity="1.000000" stroke="none" 
	d="
M417.285217,282.684021 
	C415.368317,279.733093 413.627045,277.095825 411.947937,274.419495 
	C405.790955,264.605804 397.221649,258.441376 385.686005,256.280792 
	C373.227753,253.947372 370.831299,250.643188 372.601654,238.171677 
	C376.318848,211.985336 380.245117,185.828705 384.235565,158.637711 
	C388.446625,161.920578 392.608795,164.543274 396.015167,167.926910 
	C412.077271,183.881790 428.062531,199.919128 443.803223,216.190216 
	C451.071106,223.703003 450.864258,229.824539 443.318085,236.893631 
	C435.661011,244.066589 433.110901,253.063705 432.875275,262.989777 
	C432.653992,272.310089 432.848419,281.639893 432.816345,290.965363 
	C432.810242,292.733948 433.239227,294.737976 431.016113,295.709717 
	C428.414185,296.847015 427.455078,294.697357 426.209473,293.260864 
	C423.265717,289.865967 420.391632,286.410645 417.285217,282.684021 
z"/>
<path fill="#183D57" opacity="1.000000" stroke="none" 
	d="
M579.198975,198.199875 
	C590.172546,186.535416 600.883789,175.110077 611.645569,163.732635 
	C613.033264,162.265533 614.050293,160.147568 616.980774,161.325745 
	C619.750732,162.439392 621.376038,164.007568 621.855591,166.983505 
	C625.193359,187.695343 628.929260,208.349701 631.867798,229.117249 
	C634.514954,247.825546 634.183105,247.980316 616.811035,255.568970 
	C604.506287,260.944061 596.962280,271.525177 588.426331,281.002808 
	C585.097900,284.698456 582.408386,288.969513 579.427368,292.978180 
	C578.537048,294.175415 577.741699,295.631958 575.887390,295.115295 
	C573.872559,294.553925 573.664307,292.873596 573.676758,291.126282 
	C573.736084,282.796204 573.505249,274.451599 573.922241,266.139465 
	C574.558167,253.465057 570.928467,243.007904 560.473877,235.064316 
	C553.589539,229.833588 553.567871,225.586609 559.454895,219.225098 
	C565.904602,212.255600 572.449097,205.373856 579.198975,198.199875 
z"/>
<path fill="#193D57" opacity="1.000000" stroke="none" 
	d="
M144.614685,507.580566 
	C162.470062,498.557220 180.008438,489.730988 197.492172,480.797821 
	C200.469742,479.276459 203.394882,478.749603 206.640686,479.509613 
	C209.175858,480.103241 211.338272,480.955902 212.382324,483.675842 
	C217.857498,497.939911 229.438232,504.787628 243.226501,508.939178 
	C249.096664,510.706635 255.278061,511.692169 260.334167,515.560913 
	C261.352783,516.340332 262.997650,516.868469 262.658844,518.457397 
	C262.400848,519.667297 260.943085,519.841248 259.837311,520.227661 
	C253.557724,522.422363 247.297760,524.673035 241.020065,526.873169 
	C229.078247,531.058472 220.421783,538.812378 215.291580,550.435669 
	C214.554199,552.106384 213.827332,553.800049 212.893387,555.362244 
	C209.884598,560.395020 206.754349,561.650330 201.628860,559.027405 
	C176.743195,546.292358 151.967377,533.342773 127.109779,520.552490 
	C123.461906,518.675537 125.109123,517.619751 127.416275,516.427246 
	C133.033127,513.524048 138.657761,510.635834 144.614685,507.580566 
z"/>
<path fill="#193D57" opacity="1.000000" stroke="none" 
	d="
M790.028687,335.012024 
	C782.782471,349.283325 775.662292,363.201385 768.693787,377.195007 
	C767.179138,380.236725 766.240173,381.736053 762.793030,378.785553 
	C750.612915,368.360321 736.587341,368.735077 722.206665,372.851501 
	C714.537109,375.046875 706.981201,377.637573 699.363037,380.014771 
	C697.675964,380.541260 695.989197,381.448456 693.909851,380.441833 
	C694.930725,376.789307 697.512390,374.117584 699.561523,371.174652 
	C704.313904,364.349548 709.419128,357.768677 713.373535,350.408539 
	C719.290649,339.395294 720.608704,328.030304 715.898743,316.281433 
	C714.683533,313.250183 715.009888,311.748962 718.550476,311.196594 
	C747.810913,306.631958 777.055481,301.965698 806.308105,297.351105 
	C806.929321,297.253082 807.589905,297.404633 808.991943,297.481323 
	C802.590454,310.161316 796.399780,322.423584 790.028687,335.012024 
z"/>
<path fill="#193D57" opacity="1.000000" stroke="none" 
	d="
M236.686691,661.761597 
	C239.636368,656.005981 239.688232,655.937134 244.631821,659.661438 
	C256.911713,668.912842 270.385986,668.313171 284.190887,664.439148 
	C292.035431,662.237732 299.773621,659.659363 307.578003,657.311462 
	C309.271698,656.802002 311.010162,656.029297 313.392731,657.143005 
	C308.431763,664.718750 303.526001,672.168396 297.709290,678.916687 
	C288.615479,689.466980 284.654419,700.996887 288.571411,714.922913 
	C290.481873,721.715271 286.752350,726.537537 279.497711,727.664185 
	C257.623260,731.061218 235.728119,734.325195 213.838181,737.621887 
	C208.603348,738.410278 203.357285,739.124023 196.822571,740.056702 
	C210.359680,713.449707 223.430099,687.760010 236.686691,661.761597 
z"/>
<path fill="#193D57" opacity="1.000000" stroke="none" 
	d="
M715.766052,690.332581 
	C709.863770,678.605774 700.731689,669.363647 694.147034,657.257202 
	C702.919067,658.378784 710.048157,661.148621 717.348511,663.199646 
	C728.160645,666.237305 738.968750,668.884094 750.209412,665.267761 
	C755.054810,663.708923 759.266602,661.109436 763.068970,657.811584 
	C765.000427,656.136414 766.233887,655.952393 767.586426,658.604248 
	C781.194641,685.283386 794.902466,711.911682 808.566284,738.562500 
	C808.701538,738.826355 808.620911,739.200745 808.688721,740.285645 
	C801.741760,739.247803 794.936279,738.284180 788.148865,737.207458 
	C765.464783,733.609009 742.802490,729.867737 720.092651,726.441650 
	C716.024475,725.827942 715.526733,724.574280 717.047607,721.058411 
	C721.483521,710.803772 720.870850,700.634583 715.766052,690.332581 
z"/>
<path fill="#193D57" opacity="1.000000" stroke="none" 
	d="
M828.037659,545.062927 
	C820.617676,548.535217 813.579956,551.947266 806.460693,555.179749 
	C800.210693,558.017517 794.298218,555.668518 791.939819,549.371460 
	C787.212646,536.749390 777.183105,531.008789 764.823975,528.403137 
	C757.146240,526.784363 749.780212,524.405151 742.327148,520.829041 
	C744.632324,518.064575 747.713196,517.247681 750.457703,516.015869 
	C757.892700,512.678711 765.508484,509.730652 772.861328,506.227081 
	C784.376770,500.740082 792.789185,492.436859 795.462463,479.415955 
	C796.030884,476.647156 797.197754,475.859467 799.937744,477.261017 
	C825.711853,490.444611 851.529907,503.542145 877.320190,516.694153 
	C878.288208,517.187805 879.781311,517.382080 879.744751,518.866211 
	C879.707642,520.373657 878.120789,520.400513 877.179504,520.867493 
	C860.934875,528.927673 844.655945,536.918518 828.037659,545.062927 
z"/>
<path fill="#193D57" opacity="1.000000" stroke="none" 
	d="
M396.011780,780.226196 
	C402.828186,776.559265 407.512543,771.166626 411.784058,765.372498 
	C416.722443,758.673828 421.548706,751.892639 426.468811,745.180237 
	C427.310791,744.031555 427.885071,741.902710 429.522858,742.343384 
	C431.408203,742.850647 431.033661,745.101624 431.052704,746.663025 
	C431.160339,755.487183 431.203827,764.313049 431.154205,773.137756 
	C431.118378,779.506409 431.619690,785.761963 433.813080,791.812500 
	C436.003784,797.855713 439.934113,802.487000 445.344604,805.776428 
	C448.075378,807.436707 448.323639,808.617798 445.986694,810.962952 
	C426.832916,830.184021 407.786346,849.511841 388.682434,868.782654 
	C387.808746,869.663940 386.857635,871.523315 385.593872,870.583557 
	C384.639801,869.873962 384.442627,867.935425 384.212677,866.495300 
	C381.247925,847.927856 378.339691,829.351440 375.412567,810.777954 
	C374.635437,805.846619 373.763458,800.928650 373.075043,795.985046 
	C371.934113,787.792114 374.893646,784.073730 383.139313,783.398865 
	C387.491364,783.042542 391.715698,782.313171 396.011780,780.226196 
z"/>
<path fill="#193D57" opacity="1.000000" stroke="none" 
	d="
M562.626770,803.839966 
	C572.261475,790.757690 575.569580,775.881531 577.578064,760.570801 
	C578.178101,755.997009 578.630005,751.403748 579.319092,745.325745 
	C583.982239,751.405640 587.876526,756.464600 591.750061,761.539429 
	C594.475342,765.109985 596.970642,768.879028 599.925415,772.246399 
	C605.590637,778.702576 612.827087,781.969421 621.484009,782.173706 
	C631.483765,782.409668 634.578735,786.093323 633.049072,796.102722 
	C629.402161,819.966125 625.645508,843.812744 621.894104,867.660034 
	C621.671814,869.073120 621.863831,871.080994 620.332764,871.579224 
	C618.663879,872.122375 617.903992,870.139526 616.945435,869.107178 
	C599.036438,849.819702 581.191895,830.472290 563.261536,811.204712 
	C561.127563,808.911682 559.441467,806.900085 562.626770,803.839966 
z"/>
<path fill="#183D57" opacity="1.000000" stroke="none" 
	d="
M294.813507,179.083008 
	C298.012512,179.674225 300.849731,179.972305 303.556152,180.734772 
	C309.240723,182.336243 311.844940,185.636902 311.008636,191.429794 
	C308.941101,205.750565 306.630737,220.044067 304.009857,234.273361 
	C302.935333,240.107117 298.627045,243.174835 292.623840,242.460327 
	C279.252350,240.868759 265.818787,239.498566 252.705978,236.268936 
	C246.233871,234.674881 242.399002,229.246170 242.646591,222.623734 
	C243.133133,209.610855 245.189804,196.801682 248.058212,184.130005 
	C249.703918,176.859802 254.845413,173.385269 262.341919,174.034271 
	C273.136108,174.968765 283.697845,177.415970 294.813507,179.083008 
z"/>
<path fill="#183D57" opacity="1.000000" stroke="none" 
	d="
M485.209991,108.210533 
	C488.603851,104.983955 491.588715,101.814697 494.925049,99.073135 
	C499.416809,95.382080 505.490234,93.265869 511.290527,99.283569 
	C520.878662,109.231110 530.975098,118.686798 540.744995,128.461990 
	C545.192871,132.912216 545.543640,135.411148 541.348816,140.072311 
	C531.767029,150.719376 521.742310,160.974945 510.742310,170.184418 
	C506.339355,173.870636 499.635010,173.738174 494.984436,169.933731 
	C484.777496,161.583847 475.716919,152.002411 466.767914,142.365967 
	C461.913513,137.138626 462.466705,131.507675 467.765961,125.880150 
	C473.357635,119.942131 479.215790,114.255051 485.209991,108.210533 
z"/>
<path fill="#193D57" opacity="1.000000" stroke="none" 
	d="
M145.400040,363.480286 
	C150.307739,364.467987 153.485718,366.988922 155.832809,371.009857 
	C162.212402,381.939117 167.836487,393.247589 173.121490,404.726501 
	C175.843796,410.639282 174.693634,414.049225 169.138123,417.133026 
	C156.780609,423.992584 144.351440,430.723083 132.000946,437.595062 
	C129.722076,438.863068 127.981613,438.890778 125.667847,437.382294 
	C120.818550,434.220856 117.009308,430.396698 114.189201,425.237610 
	C109.163139,416.042877 104.140938,406.858673 99.804871,397.315247 
	C96.644043,390.358490 98.317749,385.069031 104.845352,381.299377 
	C115.510452,375.140350 126.463295,369.552094 137.815002,364.759827 
	C140.119751,363.786835 142.405884,362.739288 145.400040,363.480286 
z"/>
<path fill="#193D57" opacity="1.000000" stroke="none" 
	d="
M130.992401,600.935303 
	C144.972427,607.988525 158.559357,614.988525 172.262894,621.752319 
	C175.571075,623.385254 176.665710,624.752502 174.694611,628.444336 
	C166.871582,643.096497 159.290619,657.880127 151.811096,672.711487 
	C150.143036,676.019165 148.744370,677.106140 145.029190,675.160217 
	C132.818970,668.764832 120.382729,662.802612 108.080437,656.580811 
	C99.690857,652.337708 97.947014,647.594727 102.007790,639.101318 
	C107.882378,626.814209 114.278625,614.772278 119.970810,602.404236 
	C122.112740,597.750183 124.312012,596.642090 128.451691,599.608704 
	C129.121384,600.088623 129.909042,600.403992 130.992401,600.935303 
z"/>
<path fill="#193D57" opacity="1.000000" stroke="none" 
	d="
M887.831787,608.171875 
	C894.424683,620.725952 900.648804,633.063110 907.325867,645.150024 
	C909.611877,649.288330 908.724365,650.917358 904.710938,652.884705 
	C890.069458,660.061890 875.561584,667.518005 861.120728,675.092773 
	C857.845520,676.810730 856.358459,676.483215 854.649719,673.062439 
	C847.140015,658.028503 839.370605,643.123596 831.613831,628.214355 
	C830.358765,625.801880 829.945679,624.306641 833.024719,622.783203 
	C848.535034,615.108704 863.953308,607.245850 879.330505,599.306763 
	C881.705933,598.080322 882.925476,598.481323 883.996277,600.749023 
	C885.132507,603.155396 886.419373,605.490601 887.831787,608.171875 
z"/>
<path fill="#193D57" opacity="1.000000" stroke="none" 
	d="
M873.710083,435.264832 
	C860.179932,428.406433 847.033630,421.619873 833.775085,415.059998 
	C830.779297,413.577759 829.912231,412.292969 831.609375,409.080017 
	C839.450195,394.235382 847.169678,379.324097 854.696716,364.318359 
	C856.336975,361.048340 857.813354,360.912506 860.827515,362.459686 
	C875.614624,370.050018 890.451965,377.549103 905.408997,384.796875 
	C908.955566,386.515442 908.987366,388.125336 907.376526,391.244934 
	C900.055725,405.422424 892.930847,419.701050 885.736572,433.943878 
	C882.734436,439.887146 882.734924,439.889069 876.703857,436.809540 
	C875.815308,436.355835 874.936584,435.882812 873.710083,435.264832 
z"/>
<path fill="#193D57" opacity="1.000000" stroke="none" 
	d="
M697.679443,849.767639 
	C695.260315,841.466309 698.620667,833.926392 699.227722,826.197998 
	C699.590393,821.580383 701.069519,817.062012 701.746521,812.454895 
	C702.717773,805.844849 706.932068,801.470886 711.554504,797.279419 
	C712.660400,796.276733 713.867310,796.028015 715.242981,796.303345 
	C726.823608,798.620789 738.718262,799.277649 750.052429,802.900635 
	C757.107788,805.155884 761.988586,811.658264 761.782593,819.057434 
	C761.442566,831.272583 758.788574,843.164551 756.154175,855.022095 
	C754.977722,860.317383 751.672058,862.714294 746.261108,862.135559 
	C732.514587,860.665222 718.906006,858.192749 705.342407,855.541626 
	C702.191284,854.925781 699.496704,853.124451 697.679443,849.767639 
z"/>
<path fill="#193D57" opacity="1.000000" stroke="none" 
	d="
M738.145386,237.185196 
	C730.097656,239.098465 722.300659,239.854706 714.534546,240.751083 
	C710.036804,241.270248 704.503906,237.252136 703.036255,232.051743 
	C699.497742,219.513687 697.829224,206.612778 696.896545,193.664780 
	C696.418823,187.032196 700.259827,182.495560 706.926880,181.356186 
	C721.688843,178.833435 736.522705,176.733871 751.312988,174.372543 
	C754.146057,173.920242 755.298767,175.093124 755.635132,177.709000 
	C757.460266,191.904175 760.044861,206.006790 761.065430,220.298065 
	C761.538269,226.919250 757.124512,232.673935 750.714844,234.289581 
	C746.683655,235.305679 742.618652,236.187775 738.145386,237.185196 
z"/>
<path fill="#193D57" opacity="1.000000" stroke="none" 
	d="
M306.936462,831.174072 
	C307.971863,837.681946 308.879913,843.768066 309.952301,849.825134 
	C310.473145,852.767273 309.434631,854.113342 306.480469,854.508484 
	C292.639252,856.359619 278.938202,859.194275 265.004181,860.406738 
	C257.436646,861.065063 251.929947,857.526245 250.305054,850.285706 
	C247.209961,836.494019 245.006744,822.531799 242.815231,808.569702 
	C242.357788,805.655396 243.018677,804.314087 246.099167,803.912842 
	C261.101410,801.958557 276.068146,799.724854 291.082214,797.871643 
	C296.630463,797.186829 301.322418,801.815369 302.694519,808.691467 
	C304.158325,816.027161 305.488312,823.389587 306.936462,831.174072 
z"/>
<path fill="#1A3D57" opacity="1.000000" stroke="none" 
	d="
M508.857971,872.038574 
	C519.118408,881.304749 529.026917,890.422058 539.162354,899.279663 
	C542.094788,901.842346 541.904419,903.353821 539.158447,905.873413 
	C528.381348,915.761963 517.732910,925.794006 507.192200,935.934326 
	C504.965698,938.076294 503.665344,937.990601 501.613922,935.823669 
	C491.443817,925.081055 481.204590,914.401855 470.845642,903.841553 
	C468.591400,901.543518 468.995667,900.248718 471.184204,898.281555 
	C480.948029,889.505005 490.729706,880.736511 500.172607,871.620850 
	C503.504852,868.404175 505.847229,868.422058 508.857971,872.038574 
z"/>
<path fill="#1D4055" opacity="1.000000" stroke="none" 
	d="
M609.370483,602.545654 
	C600.584961,599.341553 592.132874,596.369080 583.776550,593.148438 
	C577.779480,590.837097 574.985352,586.408264 575.025269,580.065552 
	C575.064270,573.881042 578.965027,568.147827 584.538879,566.104736 
	C589.047180,564.452393 593.215515,565.235474 596.474243,568.649170 
	C606.033020,578.662476 613.347717,590.418518 621.540466,601.492493 
	C622.293274,602.510010 622.497803,603.621948 621.718323,604.722839 
	C620.813416,606.000854 619.652832,606.113159 618.216187,605.579895 
	C615.418091,604.541199 612.571411,603.633179 609.370483,602.545654 
z"/>
<path fill="#1D4055" opacity="1.000000" stroke="none" 
	d="
M425.740234,466.968811 
	C417.985107,470.949402 410.531982,469.748718 405.086182,463.796417 
	C397.450684,455.450653 390.903687,446.230286 383.967682,437.323059 
	C382.925415,435.984589 381.869781,434.701263 383.527039,432.995117 
	C384.732300,431.754364 385.721375,430.682220 387.761841,431.403534 
	C399.329895,435.492798 411.229553,438.688965 422.311035,444.081512 
	C426.917053,446.322906 431.571381,455.112549 430.848328,460.005188 
	C430.407593,462.987701 428.259979,464.930145 425.740234,466.968811 
z"/>
<path fill="#1D4055" opacity="1.000000" stroke="none" 
	d="
M357.752625,520.235901 
	C356.752899,517.311646 357.805359,515.949219 360.333740,515.137451 
	C371.383789,511.589996 382.322693,507.648651 393.659668,505.095398 
	C402.282440,503.153381 409.109741,508.879852 409.057861,517.654663 
	C408.982422,530.417358 402.775330,535.079834 390.390930,531.555908 
	C379.397125,528.427612 368.517456,524.943787 357.752625,520.235901 
z"/>
<path fill="#1D4055" opacity="1.000000" stroke="none" 
	d="
M459.033630,425.859222 
	C456.862274,423.067841 456.315277,420.166931 456.304840,417.104919 
	C456.267487,406.117981 456.241455,395.131012 456.177643,384.144196 
	C456.166595,382.240417 456.139618,380.375610 458.411407,379.696045 
	C460.603088,379.040436 461.266907,380.896545 462.192780,382.187653 
	C468.591522,391.110535 475.169952,399.911621 480.904968,409.291077 
	C485.166870,416.261169 484.488464,423.827148 479.315399,427.753632 
	C472.689514,432.782837 465.243713,432.194489 459.033630,425.859222 
z"/>
<path fill="#1D4055" opacity="1.000000" stroke="none" 
	d="
M608.471436,532.664001 
	C603.597900,531.379089 599.514038,529.325073 597.609009,524.896179 
	C595.661682,520.368713 594.657104,515.406555 598.379517,511.257660 
	C602.387512,506.790375 607.008057,503.758667 613.724365,505.486450 
	C624.523621,508.264648 635.008057,511.949829 645.532654,515.551270 
	C647.019104,516.059875 648.398560,516.494019 648.472229,518.392212 
	C648.521423,519.660217 648.188599,520.789612 646.899414,521.207703 
	C634.299194,525.294373 622.174316,530.958679 608.471436,532.664001 
z"/>
<path fill="#1D4055" opacity="1.000000" stroke="none" 
	d="
M593.903442,439.912231 
	C601.650879,437.271393 609.027832,434.743500 616.443726,432.335144 
	C618.226868,431.756042 620.196289,430.633698 621.755859,433.035950 
	C623.118164,435.134338 621.724121,436.487946 620.664124,437.913055 
	C613.925781,446.972198 607.707275,456.448425 599.832092,464.607910 
	C594.194824,470.448608 581.828003,470.296326 577.449402,464.487122 
	C573.368591,459.072998 576.830139,447.927887 583.941406,444.177338 
	C587.011658,442.558075 590.337585,441.423676 593.903442,439.912231 
z"/>
<path fill="#1D4055" opacity="1.000000" stroke="none" 
	d="
M458.827393,656.977295 
	C455.991394,656.326233 456.189240,654.376038 456.195648,652.542542 
	C456.233398,641.743896 456.045441,630.937927 456.384949,620.148621 
	C456.761383,608.186584 466.020935,602.752380 476.846222,607.805847 
	C482.848724,610.607849 486.025940,617.758667 482.954376,623.628113 
	C476.708771,635.562805 468.506012,646.240173 460.143616,656.765137 
	C459.977386,656.974304 459.530334,656.960266 458.827393,656.977295 
z"/>
<path fill="#1D4055" opacity="1.000000" stroke="none" 
	d="
M406.998901,570.890198 
	C415.264618,565.057007 421.187225,566.020996 426.756683,573.991272 
	C432.879089,582.752869 433.604462,587.428833 421.290009,593.218323 
	C410.953613,598.077881 399.900818,601.414734 389.158752,605.408386 
	C387.811279,605.909241 386.406738,606.931580 385.068817,605.383545 
	C383.541016,603.615784 384.965607,602.252136 385.838165,600.952637 
	C392.603119,590.877258 399.035492,580.566528 406.998901,570.890198 
z"/>
<path fill="#1D4055" opacity="1.000000" stroke="none" 
	d="
M531.020630,400.006836 
	C535.378296,394.098328 539.542542,388.493713 543.644043,382.843506 
	C544.687927,381.405426 545.715881,380.253662 547.727783,380.828064 
	C549.926331,381.455688 549.704529,383.233826 549.702637,384.872833 
	C549.690796,394.852448 549.694214,404.832520 549.595642,414.811462 
	C549.562561,418.163757 548.931396,421.404846 547.034729,424.314667 
	C542.481079,431.300659 535.933472,433.146454 529.053345,429.309967 
	C523.328674,426.117828 520.805359,417.067413 524.163940,410.836975 
	C526.130249,407.189423 528.574585,403.799530 531.020630,400.006836 
z"/>
<path fill="#1D4055" opacity="1.000000" stroke="none" 
	d="
M540.145630,607.520020 
	C546.923523,612.586060 549.947571,619.021973 549.804077,627.110596 
	C549.656738,635.416321 549.776794,643.726440 549.725647,652.034363 
	C549.715942,653.609619 550.219116,655.564026 547.974915,656.174866 
	C546.195190,656.659241 544.789795,656.054321 543.658142,654.518372 
	C537.456909,646.101685 530.765869,638.040894 525.661133,628.842590 
	C522.119690,622.461121 523.400757,616.216919 526.181274,610.198425 
	C528.064941,606.121155 534.868591,604.941833 540.145630,607.520020 
z"/>
<path fill="#1F4155" opacity="1.000000" stroke="none" 
	d="
M318.930969,274.250977 
	C322.793884,268.823120 330.134033,267.624725 337.018890,270.972961 
	C341.425171,273.115814 344.889221,280.293182 343.763885,284.948425 
	C341.746277,293.294952 327.836212,298.404755 320.961578,293.320282 
	C317.965576,291.104431 317.160858,287.869690 317.362518,284.461060 
	C317.557831,281.159668 318.269501,277.888885 318.930969,274.250977 
z"/>
<path fill="#1D4055" opacity="1.000000" stroke="none" 
	d="
M497.117554,238.069885 
	C494.289429,235.879684 492.378296,233.447281 490.931793,230.564224 
	C489.078094,226.869614 489.564758,223.546463 491.952301,220.317429 
	C499.964294,209.481705 503.165802,209.195114 511.917816,218.573792 
	C516.865540,223.875809 517.448425,226.848557 514.401001,231.237656 
	C509.165009,238.778931 503.791107,241.008667 497.117554,238.069885 
z"/>
<path fill="#1F4155" opacity="1.000000" stroke="none" 
	d="
M214.924728,437.033264 
	C209.351913,426.849182 210.356995,422.622437 219.727798,417.744324 
	C222.852753,416.117554 226.038483,412.026215 228.841980,413.182861 
	C231.233978,414.169708 232.012543,419.025757 233.542282,422.151917 
	C238.116257,431.499298 236.497360,436.677551 227.690613,440.788422 
	C222.515488,443.204132 219.628143,442.414551 214.924728,437.033264 
z"/>
<path fill="#1F4155" opacity="1.000000" stroke="none" 
	d="
M510.805847,818.796265 
	C503.480011,825.389099 503.479492,825.389709 496.234802,819.016113 
	C493.247009,816.387695 490.306671,813.702881 487.259766,811.145081 
	C485.296417,809.496887 484.792267,808.068848 487.364716,806.608398 
	C487.651184,806.445923 487.903778,806.223328 488.170135,806.025940 
	C500.831207,796.642578 507.331818,797.474426 517.549255,809.570374 
	C518.801392,811.052856 518.373474,811.861572 517.310730,812.851013 
	C515.247742,814.771851 513.148499,816.653809 510.805847,818.796265 
z"/>
<path fill="#1F4155" opacity="1.000000" stroke="none" 
	d="
M220.639008,620.366882 
	C218.541275,617.141418 216.594040,614.242493 214.745575,611.281860 
	C212.505630,607.694336 213.345718,604.236450 215.497955,600.978516 
	C217.621994,597.763245 220.787338,597.352173 224.331451,597.833252 
	C229.770538,598.571472 234.780975,601.142944 240.440048,601.041016 
	C238.883347,605.976379 228.291168,624.332397 225.386292,627.225403 
	C223.856766,625.021851 222.345032,622.843994 220.639008,620.366882 
z"/>
<path fill="#204254" opacity="1.000000" stroke="none" 
	d="
M672.411499,765.565918 
	C664.982178,762.725708 663.774231,760.918762 664.085327,753.620605 
	C664.233521,750.143005 664.936401,746.675110 664.231689,743.182007 
	C663.768860,740.887939 664.456421,740.112915 666.868286,740.932068 
	C670.635681,742.211548 674.529358,743.123230 678.284485,744.434204 
	C685.582336,746.982178 688.384644,752.494812 686.265503,759.752930 
	C684.733826,764.999390 680.275085,766.951721 672.411499,765.565918 
z"/>
<path fill="#1F4155" opacity="1.000000" stroke="none" 
	d="
M785.072510,417.995178 
	C788.921875,420.277832 794.642395,420.628815 795.734802,424.306122 
	C796.802124,427.898926 792.513794,431.564545 790.878296,435.340942 
	C790.680420,435.797821 790.427246,436.230988 790.195007,436.672668 
	C786.885864,442.965912 786.846191,443.040985 780.324890,439.620819 
	C776.382874,437.553375 770.380310,436.889709 769.047668,433.056274 
	C767.716309,429.226501 772.202271,425.114624 773.996094,421.063446 
	C774.332458,420.303741 774.832764,419.603882 775.082275,418.820618 
	C776.360962,414.806000 778.608704,413.994843 782.056824,416.525787 
	C782.846497,417.105438 783.839478,417.408173 785.072510,417.995178 
z"/>
<path fill="#1F4155" opacity="1.000000" stroke="none" 
	d="
M332.526306,765.502808 
	C321.939514,768.148621 321.939514,768.148621 319.913269,757.768005 
	C318.217102,749.078491 320.476532,745.787659 329.231781,744.195618 
	C339.524780,742.323975 339.524780,742.323975 341.421356,752.586975 
	C343.336670,762.951355 343.336670,762.951355 332.526306,765.502808 
z"/>
<path fill="#1F4155" opacity="1.000000" stroke="none" 
	d="
M680.351318,267.592712 
	C682.415222,271.607361 684.443909,275.250519 686.028076,279.077606 
	C689.238037,286.832428 684.417419,293.841583 676.026001,293.484589 
	C671.441040,293.289520 666.514404,293.258606 664.577332,287.521667 
	C662.847473,282.398590 663.941101,277.761322 668.852905,273.787415 
	C672.210693,271.070862 675.256409,267.526611 680.351318,267.592712 
z"/>
<path fill="#204254" opacity="1.000000" stroke="none" 
	d="
M781.351257,598.792603 
	C789.012878,598.500000 791.894958,603.967712 795.033447,609.061829 
	C798.547241,614.765320 798.515930,614.757812 792.260620,616.620483 
	C790.200378,617.233887 788.207947,618.076599 786.144775,618.678467 
	C778.679565,620.856262 772.986938,618.222656 771.441345,611.937134 
	C770.223450,606.984680 775.039185,600.371399 781.351257,598.792603 
z"/>
</svg>